<svg id="Layer_1" data-name="Layer 1" xmlns="http://www.w3.org/2000/svg" viewBox="0 0 368.64 361.77"><defs><style>.cls-1{fill:#c3c7c9;}.cls-1,.cls-2,.cls-3,.cls-4{fill-rule:evenodd;}.cls-2{fill:#ffa145;}.cls-3{fill:#ffa64d;}.cls-4{fill:#ffbb68;}</style></defs><path d="M248.38,66.26,426.6,124.75l-1.78,5.46,1.8-5.47a5.76,5.76,0,0,1-.35,11L248.05,194.27h0a5.72,5.72,0,0,1-3.92-.12L65.92,135.68l1.78-5.47-1.8,5.48a5.76,5.76,0,0,1,.35-11L244.47,66.15h0a5.78,5.78,0,0,1,3.92.12Zm158,64L246.26,77.67,86.14,130.21l160.12,52.55Z" transform="translate(-61.94 -65.86)"/><path d="M367.81,155,311.3,173.52h0a5.77,5.77,0,0,1-4.08-.19L139.4,111.43l2-5.4-2,5.41a5.76,5.76,0,0,1,.53-11l56.51-18.54h0a5.69,5.69,0,0,1,4.07.18L368.33,144l-2,5.4,2-5.4a5.76,5.76,0,0,1-.54,11Zm-58.19,7,39.26-12.88L198.11,93.47l-39.26,12.88Z" transform="translate(-61.94 -65.86)"/><path d="M69.57,355.15A5.76,5.76,0,0,0,65.83,366l178.56,61.27h0a5.67,5.67,0,0,0,3.92-.07L426.69,366A5.76,5.76,0,0,0,423,355.15L246.26,415.78Z" transform="translate(-61.94 -65.86)"/><path d="M430.58,130.21a5.76,5.76,0,1,0-11.52,0V360.59a5.76,5.76,0,0,0,11.52,0Z" transform="translate(-61.94 -65.86)"/><path d="M73.46,130.21a5.76,5.76,0,1,0-11.52,0V360.59a5.76,5.76,0,1,0,11.52,0Z" transform="translate(-61.94 -65.86)"/><path d="M252,188.81a5.76,5.76,0,0,0-11.52,0V421.86a5.76,5.76,0,0,0,11.52,0Z" transform="translate(-61.94 -65.86)"/><path d="M99.28,329.33a5.75,5.75,0,1,0-3.74,10.88L121.23,349A5.76,5.76,0,1,0,125,338.14Z" transform="translate(-61.94 -65.86)"/><path d="M308.07,162.47,364.56,144h0a5.76,5.76,0,0,1,7.27,3.68,6,6,0,0,1,.28,1.9V205a5.77,5.77,0,0,1-4.3,5.58L311.4,230.27h0a5.76,5.76,0,0,1-7.34-3.54,5.83,5.83,0,0,1-.32-2V168.05a5.77,5.77,0,0,1,4.32-5.58Zm52.52-5.11-45.32,14.85v44.54l45.32-15.81Z" transform="translate(-61.94 -65.86)"/><path d="M275,379.3l46.36-15.9V346.17L275,362.07V379.3Zm52.12-11.79L329,373l-57.66,19.77a5.77,5.77,0,0,1-7.85-5.37V358.08a5.76,5.76,0,0,1,3.89-5.57l1.87,5.45-1.87-5.45,57.66-19.77a5.59,5.59,0,0,1,2.09-.39,5.76,5.76,0,0,1,5.76,5.76v29.28A5.76,5.76,0,0,1,329,373Z" transform="translate(-61.94 -65.86)"/><polygon class="cls-1" points="247.68 96.11 286.94 83.23 136.17 27.61 96.92 40.49 247.68 96.11"/><polygon class="cls-2" points="230.09 101.88 79.33 46.27 24.2 64.36 184.32 116.9 230.09 101.88"/><path class="cls-3" d="M240.5,413.8V193l-167-54.82V356.48l167,57.32ZM92,332.9a5.75,5.75,0,0,1,7.31-3.57L125,338.14A5.76,5.76,0,1,1,121.23,349l-25.69-8.82A5.75,5.75,0,0,1,92,332.9Z" transform="translate(-61.94 -65.86)"/><polygon class="cls-1" points="298.65 135.09 298.65 91.5 253.33 106.36 253.33 150.9 298.65 135.09"/><path class="cls-4" d="M419.06,356.48V138.15l-46.95,15.41V205a5.77,5.77,0,0,1-4.3,5.58L311.4,230.27h0a5.76,5.76,0,0,1-7.34-3.54,5.83,5.83,0,0,1-.32-2V176L252,193V413.8l167-57.32Zm-151.67-4,57.66-19.77a5.59,5.59,0,0,1,2.09-.39,5.76,5.76,0,0,1,5.76,5.76v29.28A5.76,5.76,0,0,1,329,373h0l-57.66,19.77a5.77,5.77,0,0,1-7.85-5.37V358.08a5.76,5.76,0,0,1,3.89-5.57Z" transform="translate(-61.94 -65.86)"/><polygon class="cls-1" points="259.44 297.54 259.44 280.31 213.08 296.21 213.08 313.45 259.44 297.54"/><polygon class="cls-2" points="344.44 64.36 184.32 11.81 153.76 21.84 304.53 77.45 344.44 64.36"/></svg>